<mxfile host="65bd71144e">
    <diagram id="XqqTuo4MlpARSyOCVeVE" name="test-local-and-test-in-cloud">
        <mxGraphModel dx="1193" dy="590" grid="1" gridSize="10" guides="1" tooltips="1" connect="1" arrows="1" fold="1" page="1" pageScale="1" pageWidth="850" pageHeight="1100" math="0" shadow="0">
            <root>
                <mxCell id="0"/>
                <mxCell id="1" parent="0"/>
                <mxCell id="10" value="" style="rounded=0;whiteSpace=wrap;html=1;strokeColor=#CC0000;fontColor=#CC0000;" parent="1" vertex="1">
                    <mxGeometry x="20" y="40" width="600" height="480" as="geometry"/>
                </mxCell>
                <mxCell id="2" value="Test Locally" style="rounded=0;whiteSpace=wrap;html=1;fillColor=#d5e8d4;strokeColor=#82b366;" parent="1" vertex="1">
                    <mxGeometry x="40" y="60" width="240" height="60" as="geometry"/>
                </mxCell>
                <mxCell id="3" value="Test on Cloud Service" style="rounded=0;whiteSpace=wrap;html=1;fillColor=#f8cecc;strokeColor=#b85450;" parent="1" vertex="1">
                    <mxGeometry x="360" y="60" width="240" height="60" as="geometry"/>
                </mxCell>
                <mxCell id="4" value="&lt;font color=&quot;#009900&quot;&gt;Simulate Cloud Service on Local&lt;/font&gt;" style="shape=note;whiteSpace=wrap;html=1;backgroundOutline=1;darkOpacity=0.05;" parent="1" vertex="1">
                    <mxGeometry x="40" y="160" width="240" height="90" as="geometry"/>
                </mxCell>
                <mxCell id="5" value="&lt;font color=&quot;#cc0000&quot;&gt;Deployed all Resources, Components to Cloud Service&lt;/font&gt;" style="shape=note;whiteSpace=wrap;html=1;backgroundOutline=1;darkOpacity=0.05;" parent="1" vertex="1">
                    <mxGeometry x="360" y="160" width="240" height="90" as="geometry"/>
                </mxCell>
                <mxCell id="6" value="&lt;font color=&quot;#009900&quot;&gt;Using mock and virtual dependiencies&lt;/font&gt;" style="shape=note;whiteSpace=wrap;html=1;backgroundOutline=1;darkOpacity=0.05;" parent="1" vertex="1">
                    <mxGeometry x="40" y="280" width="240" height="90" as="geometry"/>
                </mxCell>
                <mxCell id="7" value="&lt;font color=&quot;#cc0000&quot;&gt;Remote to do testing&lt;/font&gt;" style="shape=note;whiteSpace=wrap;html=1;backgroundOutline=1;darkOpacity=0.05;" parent="1" vertex="1">
                    <mxGeometry x="360" y="280" width="240" height="90" as="geometry"/>
                </mxCell>
                <mxCell id="8" value="&lt;font color=&quot;#009900&quot;&gt;Faster, however Lower Confident [Component Testing]&lt;/font&gt;" style="shape=note;whiteSpace=wrap;html=1;backgroundOutline=1;darkOpacity=0.05;" parent="1" vertex="1">
                    <mxGeometry x="40" y="400" width="240" height="90" as="geometry"/>
                </mxCell>
                <mxCell id="9" value="&lt;font color=&quot;#cc0000&quot;&gt;Slower, more dificult to test but higher confidents&lt;br&gt;higher levels of testing [E2E]&lt;/font&gt;" style="shape=note;whiteSpace=wrap;html=1;backgroundOutline=1;darkOpacity=0.05;" parent="1" vertex="1">
                    <mxGeometry x="360" y="401" width="240" height="90" as="geometry"/>
                </mxCell>
            </root>
        </mxGraphModel>
    </diagram>
    <diagram id="NfX02L-r47V-rbyEfhdL" name="api-gateway-apis">
        <mxGraphModel dx="2043" dy="590" grid="1" gridSize="10" guides="1" tooltips="1" connect="1" arrows="1" fold="1" page="1" pageScale="1" pageWidth="850" pageHeight="1100" math="0" shadow="0">
            <root>
                <mxCell id="0"/>
                <mxCell id="1" parent="0"/>
                <mxCell id="dMo6eIqrZlNhnUzZI8Va-13" value="" style="rounded=0;whiteSpace=wrap;html=1;fillColor=default;dashed=1;" vertex="1" parent="1">
                    <mxGeometry x="-100" y="7.5" width="950" height="592.5" as="geometry"/>
                </mxCell>
                <mxCell id="dMo6eIqrZlNhnUzZI8Va-9" value="" style="rounded=0;whiteSpace=wrap;html=1;fillColor=none;dashed=1;" vertex="1" parent="1">
                    <mxGeometry x="160" y="100" width="280" height="350" as="geometry"/>
                </mxCell>
                <mxCell id="dMo6eIqrZlNhnUzZI8Va-1" value="" style="rounded=0;whiteSpace=wrap;html=1;fillColor=none;dashed=1;" vertex="1" parent="1">
                    <mxGeometry x="560" y="100" width="270" height="280" as="geometry"/>
                </mxCell>
                <mxCell id="NLai3ne8a5GMpxjhCFHL-25" value="" style="rounded=0;whiteSpace=wrap;html=1;fillColor=none;" parent="1" vertex="1">
                    <mxGeometry x="170" y="111" width="260" height="99" as="geometry"/>
                </mxCell>
                <mxCell id="NLai3ne8a5GMpxjhCFHL-1" value="" style="sketch=0;points=[[0,0,0],[0.25,0,0],[0.5,0,0],[0.75,0,0],[1,0,0],[0,1,0],[0.25,1,0],[0.5,1,0],[0.75,1,0],[1,1,0],[0,0.25,0],[0,0.5,0],[0,0.75,0],[1,0.25,0],[1,0.5,0],[1,0.75,0]];outlineConnect=0;fontColor=#232F3E;gradientColor=#FF4F8B;gradientDirection=north;fillColor=#BC1356;strokeColor=#ffffff;dashed=0;verticalLabelPosition=bottom;verticalAlign=top;align=center;html=1;fontSize=12;fontStyle=0;aspect=fixed;shape=mxgraph.aws4.resourceIcon;resIcon=mxgraph.aws4.api_gateway;" parent="1" vertex="1">
                    <mxGeometry x="160" y="280" width="40" height="40" as="geometry"/>
                </mxCell>
                <mxCell id="NLai3ne8a5GMpxjhCFHL-2" value="" style="sketch=0;points=[[0,0,0],[0.25,0,0],[0.5,0,0],[0.75,0,0],[1,0,0],[0,1,0],[0.25,1,0],[0.5,1,0],[0.75,1,0],[1,1,0],[0,0.25,0],[0,0.5,0],[0,0.75,0],[1,0.25,0],[1,0.5,0],[1,0.75,0]];outlineConnect=0;fontColor=#232F3E;gradientColor=#F78E04;gradientDirection=north;fillColor=#D05C17;strokeColor=#ffffff;dashed=0;verticalLabelPosition=bottom;verticalAlign=top;align=center;html=1;fontSize=12;fontStyle=0;aspect=fixed;shape=mxgraph.aws4.resourceIcon;resIcon=mxgraph.aws4.lambda;" parent="1" vertex="1">
                    <mxGeometry x="560" y="280" width="40" height="40" as="geometry"/>
                </mxCell>
                <mxCell id="NLai3ne8a5GMpxjhCFHL-3" value="" style="dashed=0;outlineConnect=0;html=1;align=center;labelPosition=center;verticalLabelPosition=bottom;verticalAlign=top;shape=mxgraph.webicons.aws;gradientColor=#DFDEDE" parent="1" vertex="1">
                    <mxGeometry x="120" y="30" width="50" height="40" as="geometry"/>
                </mxCell>
                <mxCell id="NLai3ne8a5GMpxjhCFHL-4" value="" style="outlineConnect=0;dashed=0;verticalLabelPosition=bottom;verticalAlign=top;align=center;html=1;shape=mxgraph.aws3.iam;fillColor=#759C3E;gradientColor=none;" parent="1" vertex="1">
                    <mxGeometry x="280" y="120" width="40" height="51" as="geometry"/>
                </mxCell>
                <mxCell id="NLai3ne8a5GMpxjhCFHL-5" value="" style="verticalLabelPosition=bottom;html=1;verticalAlign=top;align=center;strokeColor=none;fillColor=#00BEF2;shape=mxgraph.azure.multi_factor_authentication;pointerEvents=1;" parent="1" vertex="1">
                    <mxGeometry x="290" y="272.5" width="40" height="60" as="geometry"/>
                </mxCell>
                <mxCell id="NLai3ne8a5GMpxjhCFHL-6" value="" style="outlineConnect=0;dashed=0;verticalLabelPosition=bottom;verticalAlign=top;align=center;html=1;shape=mxgraph.aws3.cognito;fillColor=#AD688B;gradientColor=none;" parent="1" vertex="1">
                    <mxGeometry x="200" y="121" width="40" height="50" as="geometry"/>
                </mxCell>
                <mxCell id="NLai3ne8a5GMpxjhCFHL-7" value="API Gateway" style="text;html=1;strokeColor=none;fillColor=none;align=center;verticalAlign=middle;whiteSpace=wrap;rounded=0;" parent="1" vertex="1">
                    <mxGeometry x="150" y="330" width="110" height="30" as="geometry"/>
                </mxCell>
                <mxCell id="NLai3ne8a5GMpxjhCFHL-8" value="" style="sketch=0;pointerEvents=1;shadow=0;dashed=0;html=1;strokeColor=none;labelPosition=center;verticalLabelPosition=bottom;verticalAlign=top;align=center;fillColor=#505050;shape=mxgraph.mscae.intune.client_software" parent="1" vertex="1">
                    <mxGeometry x="-50" y="281.25" width="50" height="45" as="geometry"/>
                </mxCell>
                <mxCell id="NLai3ne8a5GMpxjhCFHL-9" value="client" style="text;html=1;strokeColor=none;fillColor=none;align=center;verticalAlign=middle;whiteSpace=wrap;rounded=0;" parent="1" vertex="1">
                    <mxGeometry x="40" y="330" width="60" height="30" as="geometry"/>
                </mxCell>
                <mxCell id="NLai3ne8a5GMpxjhCFHL-10" value="" style="endArrow=classic;html=1;exitX=0.86;exitY=0.5;exitDx=0;exitDy=0;exitPerimeter=0;" parent="1" source="NLai3ne8a5GMpxjhCFHL-8" edge="1">
                    <mxGeometry width="50" height="50" relative="1" as="geometry">
                        <mxPoint x="400" y="280" as="sourcePoint"/>
                        <mxPoint x="150" y="303" as="targetPoint"/>
                    </mxGeometry>
                </mxCell>
                <mxCell id="NLai3ne8a5GMpxjhCFHL-11" value="cognito" style="text;html=1;strokeColor=none;fillColor=none;align=center;verticalAlign=middle;whiteSpace=wrap;rounded=0;" parent="1" vertex="1">
                    <mxGeometry x="190" y="171" width="60" height="30" as="geometry"/>
                </mxCell>
                <mxCell id="NLai3ne8a5GMpxjhCFHL-12" value="IAM" style="text;html=1;strokeColor=none;fillColor=none;align=center;verticalAlign=middle;whiteSpace=wrap;rounded=0;" parent="1" vertex="1">
                    <mxGeometry x="270" y="171" width="60" height="30" as="geometry"/>
                </mxCell>
                <mxCell id="NLai3ne8a5GMpxjhCFHL-13" value="" style="shape=image;verticalLabelPosition=bottom;labelBackgroundColor=default;verticalAlign=top;aspect=fixed;imageAspect=0;image=https://graystum.com/content/images/2022/01/Screenshot-from-2022-01-08-13-31-10.png;" parent="1" vertex="1">
                    <mxGeometry x="360" y="122" width="39" height="39" as="geometry"/>
                </mxCell>
                <mxCell id="NLai3ne8a5GMpxjhCFHL-14" value="System Manager" style="text;html=1;strokeColor=none;fillColor=none;align=center;verticalAlign=middle;whiteSpace=wrap;rounded=0;" parent="1" vertex="1">
                    <mxGeometry x="349.5" y="171" width="60" height="30" as="geometry"/>
                </mxCell>
                <mxCell id="NLai3ne8a5GMpxjhCFHL-15" value="" style="endArrow=classic;html=1;exitX=1;exitY=0.5;exitDx=0;exitDy=0;exitPerimeter=0;" parent="1" source="NLai3ne8a5GMpxjhCFHL-1" edge="1">
                    <mxGeometry width="50" height="50" relative="1" as="geometry">
                        <mxPoint x="400" y="270" as="sourcePoint"/>
                        <mxPoint x="280" y="300" as="targetPoint"/>
                    </mxGeometry>
                </mxCell>
                <mxCell id="NLai3ne8a5GMpxjhCFHL-16" value="Request Validation" style="text;html=1;strokeColor=none;fillColor=none;align=center;verticalAlign=middle;whiteSpace=wrap;rounded=0;" parent="1" vertex="1">
                    <mxGeometry x="320" y="332.5" width="60" height="30" as="geometry"/>
                </mxCell>
                <mxCell id="NLai3ne8a5GMpxjhCFHL-17" value="Lambda" style="text;html=1;strokeColor=none;fillColor=none;align=center;verticalAlign=middle;whiteSpace=wrap;rounded=0;" parent="1" vertex="1">
                    <mxGeometry x="570" y="330" width="60" height="30" as="geometry"/>
                </mxCell>
                <mxCell id="NLai3ne8a5GMpxjhCFHL-18" value="" style="endArrow=classic;html=1;" parent="1" edge="1">
                    <mxGeometry width="50" height="50" relative="1" as="geometry">
                        <mxPoint x="340" y="300" as="sourcePoint"/>
                        <mxPoint x="550" y="300" as="targetPoint"/>
                    </mxGeometry>
                </mxCell>
                <mxCell id="NLai3ne8a5GMpxjhCFHL-19" value="or" style="text;html=1;strokeColor=none;fillColor=none;align=center;verticalAlign=middle;whiteSpace=wrap;rounded=0;" parent="1" vertex="1">
                    <mxGeometry x="230" y="131" width="60" height="30" as="geometry"/>
                </mxCell>
                <mxCell id="NLai3ne8a5GMpxjhCFHL-20" value="or" style="text;html=1;strokeColor=none;fillColor=none;align=center;verticalAlign=middle;whiteSpace=wrap;rounded=0;" parent="1" vertex="1">
                    <mxGeometry x="330" y="131" width="10" height="30" as="geometry"/>
                </mxCell>
                <mxCell id="NLai3ne8a5GMpxjhCFHL-21" value="" style="endArrow=classic;html=1;entryX=0.6;entryY=0.976;entryDx=0;entryDy=0;entryPerimeter=0;exitX=0.493;exitY=0.914;exitDx=0;exitDy=0;exitPerimeter=0;" parent="1" source="NLai3ne8a5GMpxjhCFHL-5" target="NLai3ne8a5GMpxjhCFHL-8" edge="1">
                    <mxGeometry width="50" height="50" relative="1" as="geometry">
                        <mxPoint x="250" y="300" as="sourcePoint"/>
                        <mxPoint x="300" y="250" as="targetPoint"/>
                        <Array as="points">
                            <mxPoint x="310" y="400"/>
                            <mxPoint x="-20" y="400"/>
                        </Array>
                    </mxGeometry>
                </mxCell>
                <mxCell id="NLai3ne8a5GMpxjhCFHL-22" value="access denied" style="text;html=1;strokeColor=none;fillColor=none;align=center;verticalAlign=middle;whiteSpace=wrap;rounded=0;" parent="1" vertex="1">
                    <mxGeometry x="-20" y="370" width="160" height="30" as="geometry"/>
                </mxCell>
                <mxCell id="NLai3ne8a5GMpxjhCFHL-23" value="access granted" style="text;html=1;strokeColor=none;fillColor=none;align=center;verticalAlign=middle;whiteSpace=wrap;rounded=0;" parent="1" vertex="1">
                    <mxGeometry x="409.5" y="272.5" width="160" height="30" as="geometry"/>
                </mxCell>
                <mxCell id="NLai3ne8a5GMpxjhCFHL-24" value="" style="endArrow=classic;html=1;" parent="1" edge="1">
                    <mxGeometry width="50" height="50" relative="1" as="geometry">
                        <mxPoint x="300" y="260" as="sourcePoint"/>
                        <mxPoint x="300" y="210" as="targetPoint"/>
                    </mxGeometry>
                </mxCell>
                <mxCell id="NLai3ne8a5GMpxjhCFHL-26" value="auth" style="text;html=1;strokeColor=none;fillColor=none;align=center;verticalAlign=middle;whiteSpace=wrap;rounded=0;" parent="1" vertex="1">
                    <mxGeometry x="250" y="230" width="50" height="30" as="geometry"/>
                </mxCell>
                <mxCell id="dMo6eIqrZlNhnUzZI8Va-3" value="Business Logic" style="rounded=0;whiteSpace=wrap;html=1;fillColor=#f5f5f5;fontColor=#333333;strokeColor=#666666;" vertex="1" parent="1">
                    <mxGeometry x="650" y="290" width="150" height="60" as="geometry"/>
                </mxCell>
                <mxCell id="dMo6eIqrZlNhnUzZI8Va-4" value="orther services" style="rounded=0;whiteSpace=wrap;html=1;fillColor=#e1d5e7;strokeColor=#9673a6;dashed=1;" vertex="1" parent="1">
                    <mxGeometry x="560" y="480" width="250" height="80" as="geometry"/>
                </mxCell>
                <mxCell id="dMo6eIqrZlNhnUzZI8Va-5" value="" style="outlineConnect=0;dashed=0;verticalLabelPosition=bottom;verticalAlign=top;align=center;html=1;shape=mxgraph.aws3.iam;fillColor=#759C3E;gradientColor=none;" vertex="1" parent="1">
                    <mxGeometry x="560" y="122" width="40" height="51" as="geometry"/>
                </mxCell>
                <mxCell id="dMo6eIqrZlNhnUzZI8Va-6" value="Unit test" style="ellipse;shape=cloud;whiteSpace=wrap;html=1;fillColor=#f5f5f5;fontColor=#333333;strokeColor=#666666;" vertex="1" parent="1">
                    <mxGeometry x="740" y="320" width="80" height="50" as="geometry"/>
                </mxCell>
                <mxCell id="dMo6eIqrZlNhnUzZI8Va-7" value="" style="endArrow=classic;html=1;entryX=0.635;entryY=-0.04;entryDx=0;entryDy=0;entryPerimeter=0;" edge="1" parent="1" target="dMo6eIqrZlNhnUzZI8Va-4">
                    <mxGeometry width="50" height="50" relative="1" as="geometry">
                        <mxPoint x="720" y="380" as="sourcePoint"/>
                        <mxPoint x="732" y="470" as="targetPoint"/>
                    </mxGeometry>
                </mxCell>
                <mxCell id="dMo6eIqrZlNhnUzZI8Va-8" value="Integration Test" style="ellipse;shape=cloud;whiteSpace=wrap;html=1;fillColor=#f5f5f5;fontColor=#333333;strokeColor=#666666;" vertex="1" parent="1">
                    <mxGeometry x="690" y="410" width="140" height="50" as="geometry"/>
                </mxCell>
                <mxCell id="dMo6eIqrZlNhnUzZI8Va-10" value="IAM" style="text;html=1;strokeColor=none;fillColor=none;align=center;verticalAlign=middle;whiteSpace=wrap;rounded=0;" vertex="1" parent="1">
                    <mxGeometry x="560" y="173" width="60" height="30" as="geometry"/>
                </mxCell>
                <mxCell id="dMo6eIqrZlNhnUzZI8Va-12" value="" style="rounded=0;whiteSpace=wrap;html=1;fillColor=none;dashed=1;" vertex="1" parent="1">
                    <mxGeometry x="119" y="20" width="721" height="560" as="geometry"/>
                </mxCell>
                <mxCell id="dMo6eIqrZlNhnUzZI8Va-14" value="E2E Test" style="ellipse;shape=cloud;whiteSpace=wrap;html=1;dashed=1;fillColor=default;" vertex="1" parent="1">
                    <mxGeometry x="9.5" y="260" width="101" height="37.5" as="geometry"/>
                </mxCell>
            </root>
        </mxGraphModel>
    </diagram>
</mxfile>